<?xml version="1.0" encoding="UTF-8" standalone="no"?>
<svg width="32" height="32" xmlns="http://www.w3.org/2000/svg">
 <g>
  <title>Layer 1</title>
  <g stroke="null" fill-rule="evenodd" fill="none" id="Page-1">
   <g stroke="null" fill="#ffffff" id="dep">
    <g stroke="null" id="Page-1">
     <path stroke="null" id="svg_1" d="m25.03014,4.62172l-2.79086,0l0,-1.24986c0,-0.40156 -0.43669,-0.5873 -0.84328,-0.5873l-2.16342,0c-0.51702,-1.4657 -1.80202,-2.20357 -3.26772,-2.20357c-1.45568,-0.05019 -2.77581,0.83826 -3.26772,2.20357l-2.12828,0c-0.40659,0 -0.80815,0.18573 -0.80815,0.5873l0,1.24986l-2.79086,0c-1.65646,0.01506 -3.00671,1.32015 -3.08702,2.97157l0,21.03689c0,1.61629 1.47072,2.79086 3.08702,2.79086l18.06028,0c1.6163,0 3.08702,-1.17457 3.08702,-2.79086l0,-21.03689c-0.08031,-1.65142 -1.43057,-2.95651 -3.08702,-2.97157zm-13.80372,-0.36642l2.01785,0c0.35638,-0.04518 0.63748,-0.31121 0.69772,-0.66259c0.22085,-0.94367 1.04908,-1.62632 2.02287,-1.65143c0.95873,0.03012 1.77691,0.71278 1.98272,1.65143c0.06525,0.36141 0.36642,0.63246 0.73285,0.66259l2.09314,0l0,2.93642l-9.54715,0l0,-2.93642zm15.42002,24.37487c0,0.80814 -0.80815,1.32013 -1.6163,1.32013l-18.06028,0c-0.80815,0 -1.6163,-0.512 -1.6163,-1.32013l0,-21.03689c0.0753,-0.83826 0.77302,-1.48578 1.6163,-1.50084l2.79086,0l0,1.87229c0.03514,0.40659 0.39153,0.7178 0.80815,0.69772l10.82714,0c0.42163,0.02008 0.78807,-0.28109 0.84328,-0.69772l0,-1.87229l2.79086,0c0.84328,0.01506 1.541,0.66259 1.6163,1.50084l0,21.03689zm0,0"/>
     <path stroke="null" id="svg_2" d="m13.174,16.99488c-0.27607,-0.29113 -0.73285,-0.30619 -1.029,-0.04016l-2.34914,2.24373l-0.98886,-1.029c-0.27607,-0.29113 -0.73285,-0.30619 -1.029,-0.04016c-0.28611,0.30118 -0.28611,0.76799 0,1.06916l1.50587,1.541c0.1305,0.14556 0.31623,0.22588 0.512,0.22087c0.19576,-0.00502 0.37645,-0.08534 0.51198,-0.22087l2.86616,-2.71557c0.28109,-0.26102 0.30118,-0.70274 0.04016,-0.98885c-0.01004,-0.01506 -0.0251,-0.03012 -0.04016,-0.04016zm0,0"/>
     <path stroke="null" id="svg_3" d="m23.71001,18.57101l-8.44286,0c-0.40659,0 -0.73787,0.33129 -0.73787,0.73285c0,0.40659 0.33129,0.73787 0.73787,0.73787l8.44286,0c0.40659,0 0.73285,-0.33129 0.73285,-0.73787c0,-0.40156 -0.32626,-0.73285 -0.73285,-0.73285zm0,0"/>
     <path stroke="null" id="svg_4" d="m13.174,11.12203c-0.27607,-0.29114 -0.73285,-0.31121 -1.029,-0.04016l-2.34914,2.2387l-0.98886,-1.02398c-0.27607,-0.29113 -0.73285,-0.31121 -1.029,-0.04016c-0.28611,0.30117 -0.28611,0.76798 0,1.06414l1.50587,1.54602c0.1305,0.14556 0.31623,0.22588 0.512,0.21584c0.19576,0 0.37645,-0.08031 0.51198,-0.21584l2.86616,-2.72059c0.28109,-0.26101 0.30118,-0.69772 0.04016,-0.98382c-0.01004,-0.01506 -0.0251,-0.03012 -0.04016,-0.04016zm0,0"/>
     <path stroke="null" id="svg_5" d="m23.71001,12.69816l-8.44286,0c-0.40659,0 -0.73787,0.32626 -0.73787,0.73285c0,0.40659 0.33129,0.73787 0.73787,0.73787l8.44286,0c0.40659,0 0.73285,-0.33129 0.73285,-0.73787c0,-0.40659 -0.32626,-0.73285 -0.73285,-0.73285zm0,0"/>
     <path stroke="null" id="svg_6" d="m13.174,22.86774c-0.27607,-0.29113 -0.73285,-0.30619 -1.029,-0.03513l-2.34914,2.2387l-0.98886,-1.029c-0.27607,-0.29113 -0.73285,-0.30619 -1.029,-0.03513c-0.28611,0.29615 -0.28611,0.76297 0,1.06414l1.50587,1.541c0.1305,0.14556 0.31623,0.22588 0.512,0.22087c0.19576,-0.00502 0.37645,-0.08534 0.51198,-0.22087l2.86616,-2.71557c0.28109,-0.26101 0.30118,-0.70273 0.04016,-0.98885c-0.01004,-0.01506 -0.0251,-0.0251 -0.04016,-0.04016zm0,0"/>
     <path stroke="null" id="svg_7" d="m23.71001,24.44387l-8.44286,0c-0.40659,0 -0.73787,0.3313 -0.73787,0.73787c0,0.40156 0.33129,0.73285 0.73787,0.73285l8.44286,0c0.40659,0 0.73285,-0.33129 0.73285,-0.73285c0,-0.40657 -0.32626,-0.73787 -0.73285,-0.73787zm0,0"/>
    </g>
   </g>
  </g>
 </g>
</svg>